<svg width="70" height="70" viewBox="0 0 70 70" fill="none" xmlns="http://www.w3.org/2000/svg">
<rect width="70" height="70" rx="20" fill="white" fill-opacity="0.2"/>
<path d="M56.156 25.5165C55.9744 25.2009 55.5713 25.0923 55.2558 25.2741C54.9403 25.4556 54.8317 25.8587 55.0134 26.1742C56.1205 28.0973 56.6817 30.2881 56.6817 32.6859V49.2694C56.6817 50.3629 55.792 51.2526 54.6986 51.2526H15.4523C14.8271 51.2526 14.3184 50.7438 14.3184 50.1186C14.3184 49.4933 14.8271 48.9847 15.4523 48.9847H20.5217C20.8857 48.9847 21.1809 48.6896 21.1809 48.3255C21.1809 47.9615 20.8857 47.6663 20.5217 47.6663H16.1115V42.958H52.7999C53.1987 42.958 53.5232 43.2824 53.5232 43.6813V46.943C53.5232 47.3419 53.1988 47.6663 52.7999 47.6663H23.1584C22.7944 47.6663 22.4992 47.9614 22.4992 48.3254C22.4992 48.6895 22.7944 48.9846 23.1584 48.9846H52.7999C53.9256 48.9846 54.8416 48.0687 54.8416 46.943V43.6813C54.8416 42.5555 53.9257 41.6397 52.7999 41.6397H15.4523C14.8271 41.6397 14.3184 41.131 14.3184 40.5057C14.3184 39.8805 14.8271 39.3717 15.4523 39.3717H52.7999C53.9256 39.3717 54.8416 38.4559 54.8416 37.3301V34.0684C54.8416 32.9426 53.926 32.0268 52.8006 32.0268H15.5104C15.4962 32.0259 15.482 32.0251 15.4677 32.0249C15.4651 32.0248 15.4625 32.0251 15.4599 32.025C14.843 32.0065 14.3344 31.5203 14.3189 30.9237C14.3065 30.4531 14.5783 30.0308 15.0112 29.8477C16.2437 29.3263 30.9505 22.4628 36.7725 19.7434C36.9342 20.0703 37.0667 20.4313 37.168 20.8282C35.3455 21.1862 33.9662 22.7954 33.9662 24.7211C33.9662 26.9091 35.7461 28.6891 37.9341 28.6891C40.122 28.6891 41.902 26.9091 41.902 24.7211C41.902 22.7305 40.4284 21.0781 38.5149 20.7961C38.3869 20.2061 38.2047 19.6677 37.9693 19.1843C38.5876 18.8954 38.9849 18.7098 39.0938 18.6588C40.478 18.0049 42.0461 17.8729 43.5094 18.2871C46.4991 19.1336 50.6647 20.8305 53.5317 24.1073C53.7715 24.3813 54.1878 24.4091 54.4619 24.1694C54.7359 23.9296 54.7637 23.5132 54.5239 23.2392C51.4443 19.7194 47.0297 17.9137 43.8686 17.0187C42.0986 16.5176 40.2029 16.6768 38.5332 17.4657C38.5015 17.4804 38.0342 17.6988 37.2501 18.0652C36.6144 17.3039 35.7833 16.7608 34.7714 16.4571C34.4227 16.3524 34.0553 16.5503 33.9506 16.899C33.846 17.2477 34.0439 17.6153 34.3925 17.7198C35.0249 17.9096 35.5586 18.222 35.9948 18.6515C30.0571 21.4245 15.679 28.1338 14.4977 28.6334C13.5618 29.0292 12.9743 29.9418 13.001 30.9581C13.0292 32.0356 13.7844 32.9481 14.7932 33.2439V38.1441C13.7602 38.4328 13 39.3818 13 40.5057C13 41.6296 13.7602 42.5785 14.7931 42.8673V47.757C13.7602 48.0458 13 48.9948 13 50.1186C13 51.4708 14.1001 52.5709 15.4523 52.5709H54.6985C56.519 52.5709 58 51.0898 58 49.2694V32.6859C58 30.0543 57.3796 27.6422 56.156 25.5165ZM16.1115 33.3452H52.8006V33.3451C53.1741 33.3451 53.4823 33.6303 53.5194 33.9945C53.5219 34.0187 53.5231 34.0434 53.5231 34.0683V37.3301C53.5231 37.729 53.1987 38.0534 52.7999 38.0534H16.1115V33.3452ZM37.903 22.0724C37.9217 22.074 37.9405 22.0749 37.9595 22.0749C37.9682 22.0749 37.977 22.0732 37.9858 22.0729C39.4229 22.1006 40.5836 23.2774 40.5836 24.7211C40.5836 26.1821 39.3951 27.3707 37.9341 27.3707C36.4731 27.3707 35.2845 26.1821 35.2845 24.7211C35.2845 23.2706 36.4564 22.0892 37.903 22.0724Z" fill="#424141"/>
</svg>
