<svg width="70" height="70" viewBox="0 0 70 70" fill="none" xmlns="http://www.w3.org/2000/svg">
<rect width="70" height="70" rx="20" fill="white" fill-opacity="0.2"/>
<g clip-path="url(#clip0_12_884)">
<path d="M32.1607 18.4428C31.9026 18.1849 31.4844 18.1848 31.2265 18.4428L30.8236 18.8456C30.5656 19.1036 30.5656 19.5218 30.8236 19.7798C30.9526 19.9087 31.1216 19.9732 31.2907 19.9732C31.4597 19.9732 31.6288 19.9087 31.7578 19.7798L32.1607 19.377C32.4185 19.119 32.4186 18.7008 32.1607 18.4428Z" fill="#424141"/>
<path d="M32.9952 21.3918H32.4257C32.0609 21.3918 31.7651 21.6876 31.7651 22.0524C31.7651 22.4172 32.0609 22.713 32.4257 22.713H32.9952C33.3601 22.713 33.6558 22.4172 33.6558 22.0524C33.6558 21.6876 33.3601 21.3918 32.9952 21.3918Z" fill="#424141"/>
<path d="M28.5509 16.9476C28.186 16.9476 27.8903 17.2434 27.8903 17.6082V18.1777C27.8903 18.5426 28.186 18.8383 28.5509 18.8383C28.9157 18.8383 29.2115 18.5426 29.2115 18.1777V17.6082C29.2115 17.2434 28.9157 16.9476 28.5509 16.9476Z" fill="#424141"/>
<path d="M44.0743 17.502H36.7438C36.3622 16.7378 35.8555 16.0207 35.2191 15.3844C32.0404 12.2057 26.8678 12.2051 23.6883 15.3831C23.5644 15.507 23.4948 15.675 23.4948 15.8502C23.4948 16.0255 23.5644 16.1935 23.6882 16.3174L25.9983 18.6274C25.9765 18.7269 25.9645 18.8289 25.9645 18.9328V31.0611C25.9645 31.426 26.2603 31.7217 26.6251 31.7217C26.9899 31.7217 27.2857 31.426 27.2857 31.0611V28.3604L30.8784 30.5905C31.0436 30.693 31.2301 30.7458 31.4199 30.7458C31.4986 30.7458 31.578 30.7367 31.6567 30.7183C31.703 30.7074 31.7475 30.6925 31.7911 30.6759V35.5998C31.7911 36.168 32.2534 36.6302 32.8216 36.6302H38.0319C38.6 36.6302 39.0623 36.168 39.0623 35.5998V31.2395C39.258 31.5383 39.5859 31.7062 39.9239 31.7062C40.0987 31.7062 40.2755 31.6618 40.4373 31.5683L44.1843 29.405V51.1348C44.1843 52.2469 43.2794 53.1517 42.1673 53.1517H29.3025C28.1903 53.1517 27.2856 52.2468 27.2856 51.1348V34.1348C27.2856 33.77 26.9898 33.4742 26.625 33.4742C26.2602 33.4742 25.9644 33.77 25.9644 34.1348V54.3472C25.9644 56.3614 27.6031 58 29.6172 58H41.8523C43.8665 58 45.5052 56.3614 45.5052 54.3472V18.9328C45.5052 18.1438 44.8633 17.502 44.0743 17.502ZM25.6688 16.4297L25.1119 15.8727C27.7935 13.6636 31.7787 13.8123 34.2849 16.3185C34.9074 16.941 35.384 17.6549 35.7156 18.4171C35.7176 18.4217 35.7198 18.426 35.7218 18.4305C36.7181 20.7347 36.3878 23.4798 34.7306 25.4915L34.1737 24.9346C34.9895 23.8594 35.4229 22.5489 35.4027 21.1811C35.3795 19.5936 34.7482 18.1009 33.6252 16.9779C32.5023 15.855 31.0096 15.2237 29.4221 15.2004C28.0563 15.1814 26.7444 15.614 25.6688 16.4297ZM26.613 17.3737C28.4771 16.0635 31.0307 16.2515 32.6913 17.9121C34.352 19.5728 34.5399 22.1264 33.2296 23.9905L26.613 17.3737ZM28.8808 21.5099H27.2855V19.9147L28.8808 21.5099ZM27.2855 24.5452V22.8311H28.3495L27.2855 24.5452ZM31.328 29.3146L27.3952 26.8736L29.8364 22.9407L31.0892 23.7184L32.8115 25.4407C32.8115 25.4407 32.8115 25.4407 32.8116 25.4408L33.3798 26.009L31.328 29.3146ZM33.1121 35.3091V30.6802H37.7409V35.3091H33.1121ZM32.8553 29.3592V29.3591L34.3417 26.9644C34.4581 27.0572 34.6029 27.1087 34.7532 27.1087C34.9284 27.1087 35.0964 27.039 35.2203 26.9151C36.3802 25.7548 37.1146 24.3286 37.4277 22.8311H41.0283L36.8015 25.2715C36.3095 25.5555 36.1404 26.1869 36.4244 26.6791L37.9718 29.3592H32.8553ZM40.0283 30.2789L37.7138 26.2702L41.7225 23.9558L44.037 27.9645L40.0283 30.2789ZM44.1841 25.577L42.7214 23.0435C42.6759 22.9646 42.6203 22.894 42.5578 22.8311H44.1841V25.577ZM44.1841 21.5099H37.5949C37.6345 20.6062 37.5255 19.697 37.2667 18.823H44.0743C44.1349 18.823 44.1841 18.8722 44.1841 18.9327V21.5099ZM44.1841 54.3472C44.1841 55.6329 43.138 56.6789 41.8523 56.6789H29.6173C28.3316 56.6789 27.2856 55.6329 27.2856 54.3472V53.793C27.8462 54.2195 28.5453 54.4729 29.3025 54.4729H42.1672C42.9244 54.4729 43.6234 54.2195 44.1841 53.793V54.3472Z" fill="#424141"/>
</g>
<defs>
<clipPath id="clip0_12_884">
<rect width="45" height="45" fill="white" transform="translate(12 13)"/>
</clipPath>
</defs>
</svg>
