<svg width="70" height="70" viewBox="0 0 70 70" fill="none" xmlns="http://www.w3.org/2000/svg">
<rect width="70" height="70" rx="20" fill="white" fill-opacity="0.2"/>
<path d="M52.2718 33.4096C52.1331 33.4096 51.9961 33.44 51.8705 33.499L48.0322 35.2982V33.0343C48.0322 30.8546 46.2589 29.0813 44.0792 29.0813H37.7878C37.7641 29.0813 37.7405 29.0824 37.7171 29.0842C35.5501 28.059 33.1448 27.4994 30.7586 27.4994C24.3178 27.4994 18.8837 31.5159 17.2867 36.9558H15.6913C14.2139 36.9558 13.0119 38.1578 13.0119 39.6352V40.8959C13.0119 42.3732 14.2139 43.5752 15.6913 43.5752H17.2867C18.8836 49.0151 24.3177 53.0316 30.7586 53.0316C33.1448 53.0316 35.5501 52.472 37.7171 51.4469C37.7405 51.4486 37.7641 51.4498 37.7878 51.4498H44.0792C46.2589 51.4498 48.0322 49.6764 48.0322 47.4967V45.2328L51.8705 47.0321C51.9961 47.0909 52.1331 47.1214 52.2718 47.1214C54.9231 47.1214 57 44.11 57 40.2655C57 36.4211 54.923 33.4096 52.2718 33.4096ZM16.8969 41.684H15.6913C15.2567 41.684 14.9032 41.3305 14.9032 40.8959V39.6352C14.9032 39.2006 15.2567 38.8471 15.6913 38.8471H16.8969C16.8404 39.313 16.8104 39.7861 16.8104 40.2655C16.8104 40.745 16.8403 41.218 16.8969 41.684ZM44.0792 30.9726C45.216 30.9726 46.1408 31.8975 46.1408 33.0343V36.1847L45.0316 36.7047C44.301 34.653 42.9405 32.7583 41.0276 31.1782C40.9435 31.1087 40.8585 31.0403 40.7728 30.9726H44.0792ZM30.7585 51.1403C24.1102 51.1403 18.7015 46.2619 18.7015 40.2654C18.7015 34.269 24.1102 29.3906 30.7585 29.3906C37.685 29.3906 43.761 34.4722 43.761 40.2654C43.761 46.0587 37.6851 51.1403 30.7585 51.1403ZM46.1409 47.4967H46.1408C46.1408 48.6336 45.216 49.5585 44.0792 49.5585H40.773C40.8587 49.4908 40.9437 49.4224 41.0277 49.3529C42.9406 47.7727 44.301 45.8781 45.0317 43.8263L46.1409 44.3464V47.4967ZM52.4586 45.219L45.5131 41.9632C45.554 41.714 45.5869 41.4633 45.6097 41.2111H47.0866C47.6088 41.2111 48.0322 40.7877 48.0322 40.2655C48.0322 39.7434 47.6088 39.3199 47.0866 39.3199H45.6097C45.5869 39.0678 45.554 38.8171 45.5131 38.5678L52.4586 35.3121C53.9134 35.487 55.1088 37.6842 55.1088 40.2655C55.1088 42.8469 53.9134 45.0441 52.4586 45.219Z" fill="#424141"/>
<path d="M25.2106 38.8466C25.7328 38.8466 26.1562 38.4233 26.1562 37.901C26.1562 37.3788 25.7328 36.9554 25.2106 36.9554C24.6884 36.9554 24.265 37.3788 24.265 37.901C24.265 38.4233 24.6884 38.8466 25.2106 38.8466Z" fill="#424141"/>
<path d="M36.9962 36.9106C36.7866 36.7548 36.5217 36.6925 36.2649 36.7391L31.1159 37.666C30.6019 37.7585 30.2602 38.2503 30.3528 38.7642C30.4453 39.2783 30.937 39.6198 31.451 39.5273L36.1563 38.6803C36.5723 39.1078 36.8068 39.6743 36.81 40.2822C36.8131 40.8753 36.5946 41.4289 36.2002 41.8492L31.399 40.985C30.8849 40.8929 30.3932 41.2343 30.3008 41.7481C30.2083 42.2622 30.55 42.7539 31.064 42.8463L36.317 43.7919C36.3728 43.8019 36.4288 43.8068 36.4845 43.8068C36.6894 43.8068 36.8906 43.7401 37.0563 43.6143C38.1087 42.8153 38.7082 41.5972 38.7013 40.2719C38.694 38.9353 38.0727 37.7099 36.9962 36.9106Z" fill="#424141"/>
<path d="M18.1466 28.9557C18.1466 27.261 16.768 25.8823 15.0733 25.8823C13.3786 25.8823 12 27.261 12 28.9557C12 30.6504 13.3787 32.029 15.0734 32.029C16.7681 32.029 18.1466 30.6504 18.1466 28.9557ZM13.8913 28.9557C13.8913 28.3039 14.4216 27.7736 15.0734 27.7736C15.7252 27.7736 16.2554 28.3039 16.2554 28.9557C16.2554 29.6075 15.7252 30.1377 15.0734 30.1377C14.4215 30.1377 13.8913 29.6074 13.8913 28.9557Z" fill="#424141"/>
<path d="M19.6456 23.74C21.7882 23.74 23.5315 21.9968 23.5315 19.8542C23.5315 17.7116 21.7882 15.9684 19.6456 15.9684C17.503 15.9684 15.7598 17.7116 15.7598 19.8543C15.7598 21.997 17.5029 23.74 19.6456 23.74ZM19.6456 17.8597C20.7454 17.8597 21.6401 18.7544 21.6401 19.8543C21.6401 20.9541 20.7454 21.8489 19.6456 21.8489C18.5459 21.8489 17.6511 20.9541 17.6511 19.8543C17.6511 18.7544 18.5459 17.8597 19.6456 17.8597Z" fill="#424141"/>
<path d="M50.8458 39.3198H50.7512C50.2291 39.3198 49.8056 39.7433 49.8056 40.2654C49.8056 40.7876 50.2291 41.2111 50.7512 41.2111H50.8458C51.3679 41.2111 51.7914 40.7876 51.7914 40.2654C51.7914 39.7433 51.368 39.3198 50.8458 39.3198Z" fill="#424141"/>
</svg>
