<svg width="70" height="70" viewBox="0 0 70 70" fill="none" xmlns="http://www.w3.org/2000/svg">
<rect width="70" height="70" rx="20" fill="white" fill-opacity="0.2"/>
<path d="M54.1739 24.0468C52.1219 22.4114 49.2256 21.0725 45.5655 20.0674C38.5263 18.1343 30.5882 17.9257 27.502 17.9257C19.5056 17.9257 13 24.4313 13 32.4278V38.5722C13 46.5688 19.5056 53.0744 27.502 53.0744C31.1893 53.0744 33.9585 51.9193 36.8903 50.6964C39.9221 49.4317 43.0571 48.1241 47.4662 48.1241C53.2746 48.1241 58 43.3986 58 37.5903V31.4459C58 28.5596 56.7127 26.0702 54.1739 24.0468ZM53.4337 39.0721C53.7665 39.4256 54.3227 39.4423 54.6762 39.1096C55.2722 38.5483 55.7966 37.923 56.2422 37.2496V37.5903C56.2422 42.4295 52.3053 46.3663 47.4662 46.3663C42.7052 46.3663 39.4051 47.7428 36.2136 49.074C33.4488 50.2272 30.8374 51.3165 27.502 51.3165C20.7503 51.3165 15.2089 46.0384 14.7849 39.3917C17.2529 43.8806 22.0279 46.9297 27.502 46.9297C31.1893 46.9297 33.9585 45.7747 36.8903 44.5518C39.9221 43.2871 43.0571 41.9795 47.4662 41.9795C47.7938 41.9795 48.1247 41.964 48.4499 41.9336C48.9332 41.8883 49.2883 41.4599 49.243 40.9766C49.1978 40.4933 48.7688 40.1383 48.286 40.1835C48.015 40.2088 47.7393 40.2218 47.4662 40.2218C42.7052 40.2218 39.4051 41.5983 36.2136 42.9295C33.4488 44.0827 30.8374 45.172 27.502 45.172C20.4748 45.172 14.7578 39.455 14.7578 32.4279C14.7578 25.4007 20.4748 19.6836 27.502 19.6836C30.517 19.6836 38.267 19.8861 45.1 21.7625C52.4934 23.7929 56.2422 27.0508 56.2422 31.4459C56.2422 33.8449 55.2321 36.1717 53.4712 37.8296C53.1178 38.1624 53.101 38.7186 53.4337 39.0721Z" fill="#424141"/>
<path d="M52.711 39.633C52.5043 39.1939 51.9805 39.0053 51.5415 39.2121C51.5352 39.215 51.5269 39.2191 51.5206 39.2222C51.0865 39.4393 50.9106 39.9672 51.1276 40.4013C51.2816 40.7093 51.592 40.8873 51.9145 40.8873C52.0447 40.8873 52.1769 40.8582 52.3015 40.797C52.7324 40.5867 52.9159 40.0684 52.711 39.633Z" fill="#424141"/>
<path d="M33.8466 21.6891L33.8014 21.6854C33.3167 21.6476 32.8939 22.0078 32.8553 22.4917C32.8167 22.9755 33.1777 23.3991 33.6615 23.4377L33.7064 23.4412C33.7303 23.4432 33.7539 23.4441 33.7775 23.4441C34.2311 23.4441 34.6158 23.0952 34.6527 22.6353C34.6913 22.1514 34.3305 21.7278 33.8466 21.6891Z" fill="#424141"/>
<path d="M53.9355 29.0781C53.0638 27.3551 51.124 25.866 48.17 24.6525C45.7798 23.6704 43.1659 23.0501 41.3939 22.7025C40.3319 22.4943 39.2191 22.3083 38.0861 22.1499C37.6056 22.0821 37.1613 22.4178 37.0939 22.8987C37.0267 23.3794 37.3619 23.8236 37.8427 23.8908C38.944 24.0448 40.0249 24.2254 41.0556 24.4275C47.0928 25.6115 51.2157 27.5958 52.3671 29.8715C52.6089 30.3497 52.7265 30.8646 52.7265 31.4458C52.7265 34.3463 50.3667 36.706 47.4662 36.706C44.5334 36.706 41.6855 37.1853 38.7597 38.1714C37.4995 38.5961 36.2759 39.1039 35.0926 39.595C34.3099 39.9198 33.5006 40.2557 32.6973 40.56C30.6701 41.3284 29.1163 41.6562 27.502 41.6562C22.4133 41.6562 18.2733 37.5163 18.2733 32.4277C18.2733 27.339 22.4133 23.199 27.502 23.199C28.4947 23.199 29.5026 23.2178 30.4973 23.2549C30.6662 23.2611 30.8352 23.2679 31.0043 23.2754C31.4888 23.2974 31.8997 22.921 31.9211 22.436C31.9425 21.9511 31.5667 21.5406 31.0818 21.5192C30.9086 21.5116 30.7355 21.5046 30.5627 21.4982C29.5463 21.4604 28.5164 21.4412 27.5019 21.4412C21.444 21.4412 16.5154 26.3697 16.5154 32.4277C16.5154 38.4856 21.4439 43.414 27.5019 43.414C29.3419 43.414 31.082 43.0521 33.3202 42.2038C34.1491 41.8896 34.9712 41.5485 35.7664 41.2184C36.9224 40.7387 38.1178 40.2426 39.321 39.8371C42.063 38.913 44.7273 38.4638 47.4662 38.4638C51.336 38.4639 54.4843 35.3156 54.4843 31.4459C54.4843 30.5826 54.3048 29.8081 53.9355 29.0781Z" fill="#424141"/>
<path d="M28.3438 24.9373C25.8867 24.9373 23.8877 26.75 23.8877 28.9782C23.8877 31.2064 25.8867 33.0192 28.3438 33.0192C30.801 33.0192 32.8 31.2064 32.8 28.9782C32.8 26.75 30.801 24.9373 28.3438 24.9373ZM28.3438 31.2613C26.8559 31.2613 25.6455 30.2371 25.6455 28.9781C25.6455 27.7193 26.8559 26.695 28.3438 26.695C29.8317 26.695 31.0421 27.7192 31.0421 28.9781C31.0421 30.2371 29.8317 31.2613 28.3438 31.2613Z" fill="#424141"/>
</svg>
