<svg width="70" height="70" viewBox="0 0 70 70" fill="none" xmlns="http://www.w3.org/2000/svg">
<rect width="70" height="70" rx="20" fill="white" fill-opacity="0.2"/>
<path d="M30.3992 30.4785C30.0202 30.0635 29.4804 29.8205 28.9185 29.8118C27.7884 29.7973 26.8534 30.6984 26.8342 31.8277C26.8281 32.1917 27.1182 32.4918 27.4822 32.4979C27.486 32.498 27.4897 32.498 27.4936 32.498C27.8524 32.498 28.1463 32.2102 28.1524 31.8499C28.1592 31.4466 28.4907 31.123 28.8979 31.13C29.1012 31.1332 29.2887 31.2175 29.4259 31.3677C29.6714 31.6365 30.0885 31.6553 30.3571 31.4097C30.6259 31.1643 30.6448 30.7472 30.3992 30.4785Z" fill="#424141"/>
<path d="M33.9062 32.6268C33.7041 32.1518 33.3108 31.777 32.8268 31.5983C31.8535 31.2393 30.7685 31.7382 30.4079 32.7104C30.2812 33.0517 30.4554 33.4311 30.7966 33.5577C30.8722 33.5858 30.9496 33.599 31.0258 33.599C31.2936 33.599 31.5453 33.4347 31.6439 33.1689C31.7522 32.8769 32.0785 32.7275 32.3703 32.8352C32.517 32.8893 32.6316 32.9986 32.6929 33.1427C32.8353 33.4777 33.2226 33.6339 33.5574 33.4914C33.8926 33.3489 34.0486 32.9618 33.9062 32.6268Z" fill="#424141"/>
<path d="M38.1547 26.7887C37.897 26.5314 37.4796 26.5319 37.2226 26.7896L36.6012 27.4122C36.344 27.6699 36.3444 28.0873 36.6021 28.3444C36.7307 28.4728 36.8992 28.537 37.0677 28.537C37.2366 28.537 37.4055 28.4725 37.5343 28.3434L38.1557 27.7208C38.4129 27.4631 38.4124 27.0457 38.1547 26.7887Z" fill="#424141"/>
<path d="M34.0537 35.2986H33.1752C32.811 35.2986 32.516 35.5937 32.516 35.9578C32.516 36.3218 32.811 36.6169 33.1752 36.6169H34.0537C34.4178 36.6169 34.7129 36.3218 34.7129 35.9578C34.7129 35.5937 34.4178 35.2986 34.0537 35.2986Z" fill="#424141"/>
<path d="M40.7899 35.2986H39.9113C39.5471 35.2986 39.2521 35.5937 39.2521 35.9578C39.2521 36.3218 39.5472 36.6169 39.9113 36.6169H40.7899C41.1539 36.6169 41.4491 36.3218 41.4491 35.9578C41.4491 35.5937 41.1539 35.2986 40.7899 35.2986Z" fill="#424141"/>
<path d="M57.9788 47.1842L57.8072 46.2577C57.6977 45.6657 57.1808 45.236 56.5779 45.236C56.5023 45.236 56.426 45.2429 56.3509 45.2567L52.8564 45.8987L54.4389 44.8407C54.8537 44.5635 55.0633 44.0677 54.9729 43.5757C54.9477 43.441 54.9006 43.3117 54.8324 43.1907L54.3535 42.3426C54.1894 42.0513 53.9096 41.8348 53.5866 41.749C53.4284 41.7068 53.263 41.6974 53.1016 41.7184C53.2778 40.7458 53.3687 39.7525 53.3687 38.7413C53.3687 38.2926 53.0989 37.9065 52.7135 37.7351C53.2171 36.5373 53.2515 35.166 52.7537 33.9103C52.7133 33.8081 52.6534 33.717 52.5758 33.6393C52.4988 33.5623 52.4087 33.5028 52.3065 33.4618C51.71 33.2242 51.083 33.1038 50.4431 33.1038C50.3613 33.1038 50.2798 33.1059 50.1986 33.1098C50.1073 31.2699 48.5846 29.8012 46.7257 29.8012C46.4809 29.8012 46.2422 29.8272 46.0117 29.8757C46.1718 28.9177 46.0775 27.9155 45.7044 26.9746C45.6643 26.8711 45.6041 26.7783 45.5223 26.6952C45.4436 26.6164 45.3512 26.5557 45.2487 26.515C44.6061 26.2591 43.9308 26.1293 43.2414 26.1293C42.2029 26.1293 41.2094 26.4213 40.3518 26.9641C40.0385 26.0565 39.5218 25.2044 38.7998 24.4808C38.5884 24.269 38.3071 24.1522 38.0079 24.1522C37.7086 24.1522 37.4273 24.269 37.2156 24.481L34.0241 27.6798C33.4334 27.153 32.6562 26.8381 31.8127 26.8381C31.6212 26.8381 31.428 26.8549 31.2382 26.8879C30.5506 27.0076 29.9179 27.3442 29.4328 27.837C28.8108 27.5369 28.0983 27.4345 27.4136 27.5537C27.2629 27.5799 27.1168 27.6168 26.9749 27.6618V25.1968C26.9749 23.4993 25.6106 22.1158 23.9229 22.0866V20.6887C24.4395 20.5993 24.834 20.149 24.834 19.6073V16.4398C24.834 15.834 24.3412 15.3412 23.7354 15.3412H18.3748C17.769 15.3412 17.2762 15.834 17.2762 16.4398V19.6073C17.2762 20.149 17.6707 20.5993 18.1873 20.6887V22.0865C16.4996 22.1156 15.1354 23.499 15.1354 25.1966V44.4355C13.8193 45.624 13 47.2824 13 49.1163C13 52.7239 16.1662 55.6589 20.0582 55.6589L46.4417 55.6512C47.3422 55.6508 48.1892 55.255 48.7652 54.5654C49.3263 53.8941 49.5647 53.0222 49.4274 52.1623L54.697 53.1093C54.7699 53.1224 54.8447 53.1291 54.9187 53.1291C55.1815 53.1291 55.4333 53.0484 55.6466 52.896C55.9207 52.7001 56.1062 52.397 56.1557 52.0645L56.2984 51.1068C56.319 50.9696 56.3167 50.8314 56.2917 50.696C56.201 50.2063 55.8281 49.8177 55.3416 49.7063L53.4842 49.2802L56.9753 48.6388C57.3045 48.5784 57.5902 48.3935 57.7797 48.1183C57.9688 47.8439 58.0395 47.5122 57.9788 47.1842ZM50.4431 34.422C50.8399 34.422 51.2301 34.4848 51.6052 34.6086C51.9404 35.6294 51.8149 36.7304 51.29 37.6399H49.5143L50.0809 37.0719C50.3381 36.8142 50.3375 36.3969 50.0798 36.1397C49.822 35.8825 49.4046 35.883 49.1476 36.1407L48.8478 36.4412C48.7073 35.9785 48.4619 35.5642 48.1393 35.2243C48.7936 34.7048 49.5967 34.422 50.4431 34.422ZM46.7257 31.1194C47.9162 31.1194 48.8846 32.0908 48.8846 33.2847C48.8846 33.3069 48.8836 33.3288 48.883 33.3508C48.1881 33.5767 47.5476 33.9542 47.0014 34.4669C46.9145 34.4339 46.8263 34.4033 46.7358 34.3783C46.543 33.3366 45.841 32.5016 44.9137 32.1117C45.2985 31.5154 45.9663 31.1194 46.7257 31.1194ZM43.2413 27.4475C43.689 27.4475 44.129 27.5199 44.553 27.6632C44.8937 28.6764 44.8241 29.7647 44.3899 30.7075C44.033 31.0326 43.7434 31.4307 43.5455 31.8782C43.4278 31.8851 43.3101 31.8981 43.1938 31.9183C42.6773 32.0082 42.1957 32.2323 41.7926 32.5574C41.6551 32.306 41.4868 32.0741 41.294 31.8652L42.8056 30.3502C43.0628 30.0925 43.0623 29.6751 42.8045 29.418C42.5468 29.1608 42.1294 29.1613 41.8722 29.4191L40.2201 31.075C39.9057 30.9264 39.5659 30.823 39.2088 30.7747C39.363 29.9881 39.7448 29.2469 40.3352 28.655C41.1121 27.8763 42.1442 27.4475 43.2413 27.4475ZM38.1902 37.6399H37.6189C37.5226 37.395 37.2847 37.2214 37.0056 37.2214C36.7266 37.2214 36.4887 37.3951 36.3924 37.6399H35.7203C35.8763 37.3857 35.8448 37.0489 35.6245 36.829C35.3668 36.5718 34.9494 36.5723 34.6922 36.83L34.0709 37.4526C34.0151 37.5085 33.9722 37.5722 33.9407 37.6399H32.599C32.0965 36.8688 31.7899 35.9587 31.7536 34.9796H42.2113C42.175 35.9587 41.8684 36.8688 41.3659 37.6399H39.9697C39.9383 37.5722 39.8952 37.5084 39.8395 37.4525L39.2183 36.8299C38.961 36.5723 38.5438 36.5716 38.2861 36.8288C38.0656 37.0487 38.0341 37.3856 38.1902 37.6399ZM36.6572 33.6613C36.9056 32.7404 37.7456 32.061 38.741 32.061C39.7366 32.061 40.5765 32.7405 40.825 33.6613H36.6572ZM38.0051 25.5559C38.6321 26.2336 39.0467 27.0381 39.25 27.8838C38.9135 28.2495 38.6339 28.6536 38.4134 29.0837C38.3133 29.0223 38.1959 28.9864 38.07 28.9864H37.1916C36.8276 28.9864 36.5324 29.2815 36.5324 29.6456C36.5324 30.0096 36.8276 30.3047 37.1916 30.3047H37.9622C37.9188 30.4868 37.8852 30.671 37.8607 30.8566C37.599 30.9253 37.349 31.0232 37.1151 31.1479C36.6757 30.3896 35.9482 29.8246 35.0861 29.5979C35.0859 29.5961 35.0855 29.5942 35.0852 29.5924C35.0335 29.2941 34.9433 29.0111 34.8203 28.748L38.0051 25.5559ZM26.0891 31.504C26.0505 31.3959 26.0212 31.285 26.002 31.1737C25.8129 30.0838 26.5477 29.0425 27.6395 28.8524C27.7547 28.8323 27.8717 28.8221 27.9871 28.8221C28.4214 28.8221 28.8364 28.9606 29.1872 29.2226C29.3323 29.3311 29.5158 29.3749 29.6944 29.344C29.873 29.313 30.0309 29.2099 30.1311 29.0588C30.4406 28.592 30.9141 28.2823 31.4643 28.1865C31.5797 28.1664 31.6969 28.1563 31.8127 28.1563C32.7893 28.1563 33.6193 28.855 33.7861 29.8178C33.8053 29.9281 33.8151 30.0431 33.8153 30.1595C33.8159 30.5007 34.0769 30.7851 34.4168 30.815C35.1538 30.8798 35.7812 31.3436 36.072 31.997C35.6826 32.4643 35.4127 33.0349 35.3102 33.6613H31.551C31.0836 33.6613 30.6826 33.9498 30.5153 34.3582C29.6883 33.7949 28.7136 33.4914 27.6921 33.4914C27.0522 33.4914 26.4252 33.6119 25.8283 33.8495C25.727 33.89 25.6365 33.9496 25.5593 34.0268C25.4811 34.105 25.4211 34.1967 25.3817 34.2972C25.23 34.6798 25.1289 35.0731 25.0742 35.4689C24.8379 35.2 24.6715 34.8655 24.6064 34.4902C24.4514 33.5959 24.9196 32.7054 25.7446 32.3246C26.0547 32.1815 26.2042 31.8254 26.0891 31.504ZM28.0542 37.4596L28.234 37.6399H26.6509C26.2954 36.8153 26.2415 35.8767 26.53 34.9964C26.9056 34.8724 27.2956 34.8096 27.6921 34.8096C28.6853 34.8096 29.6197 35.1979 30.3229 35.9026C30.4164 35.9964 30.5035 36.0947 30.5854 36.1962C30.6971 36.7019 30.8687 37.1851 31.0898 37.6398H30.0964L28.9875 36.5283C28.7303 36.2707 28.3129 36.27 28.0553 36.5273C27.7976 36.7845 27.797 37.2019 28.0542 37.4596ZM25.247 37.6399H22.8971C23.0018 37.0014 23.3859 36.4571 23.919 36.1361C24.2347 36.5589 24.6466 36.9008 25.1212 37.1324C25.1548 37.3034 25.196 37.473 25.247 37.6399ZM18.5946 16.6595H23.5156V19.3875H18.5946V16.6595ZM22.6046 20.7059V22.0852H19.5057V20.7059H22.6046ZM16.4538 27.8699H20.7343C21.0985 27.8699 21.3935 27.5748 21.3935 27.2107C21.3935 26.8467 21.0985 26.5516 20.7343 26.5516H16.4538V25.1966C16.4538 24.2079 17.2557 23.4035 18.2414 23.4035H23.8689C24.8546 23.4035 25.6566 24.2079 25.6566 25.1966V26.5516H24.4257C24.0616 26.5516 23.7666 26.8467 23.7666 27.2107C23.7666 27.5748 24.0616 27.8699 24.4257 27.8699H25.6566V28.455C24.9013 29.1955 24.5091 30.2814 24.7028 31.3984C24.7031 31.4006 24.7036 31.4028 24.7039 31.4051C23.6464 32.1307 23.0829 33.4205 23.3073 34.7154C23.3204 34.791 23.3369 34.8654 23.3548 34.9389C23.0255 35.1205 22.7297 35.355 22.4762 35.6294H16.4538V27.8699ZM16.4537 36.9477H21.7108C21.6408 37.1698 21.5915 37.4011 21.5674 37.6399H21.4563C20.8496 37.6399 20.3559 38.1339 20.3559 38.7411C20.3559 39.7878 20.4532 40.8154 20.6417 41.8207C20.4523 41.8054 20.2581 41.7973 20.0605 41.7973C19.2633 41.7973 18.5038 41.9237 17.922 42.1535C17.0321 42.5049 16.7861 43.0038 16.7324 43.3491C16.6381 43.396 16.5455 43.4456 16.4537 43.4963V36.9477ZM24.8008 45.0454C25.0382 45.2354 25.1833 45.3968 25.2674 45.5133C25.2595 45.5134 25.2512 45.5134 25.2429 45.5134C24.8698 45.5134 24.1994 45.3631 23.4371 44.9411C23.1533 44.7839 22.8919 44.6062 22.6809 44.4276C22.435 44.2192 22.0744 44.2194 21.8287 44.4277C21.6177 44.6065 21.3563 44.784 21.0728 44.9409C20.3104 45.3631 19.64 45.5134 19.267 45.5134C19.2585 45.5134 19.2503 45.5134 19.2423 45.5133C19.3263 45.3968 19.4714 45.2353 19.7089 45.0453C19.9164 44.8791 20.0039 44.6046 19.9307 44.3491C19.8574 44.0935 19.6378 43.9069 19.3737 43.876C18.7304 43.8006 18.3237 43.6368 18.1332 43.5176C18.3719 43.369 18.9751 43.1156 20.0608 43.1156C20.9599 43.1156 21.617 43.3047 21.9322 43.4817C22.1327 43.5942 22.3771 43.5942 22.5776 43.4818C22.8929 43.3048 23.5502 43.1157 24.4493 43.1157C25.535 43.1157 26.1382 43.3692 26.3767 43.5177C26.1864 43.637 25.7795 43.8006 25.1361 43.8761C24.872 43.9071 24.6523 44.0936 24.5791 44.3493C24.5056 44.6048 24.5931 44.8794 24.8008 45.0454ZM23.4821 53.0686L23.5048 53.1908C23.5832 53.6141 23.7485 54.0027 23.9795 54.3405H20.0582C16.8933 54.3405 14.3184 51.997 14.3184 49.1163C14.3184 47.1477 15.5214 45.4307 17.2929 44.5403C17.4964 44.6922 17.75 44.8232 18.051 44.9288C17.9316 45.1326 17.8485 45.3518 17.8289 45.5804C17.8029 45.8843 17.8958 46.173 18.091 46.3932C18.3487 46.6843 18.7444 46.8319 19.267 46.8319C19.9635 46.8319 20.8773 46.5562 21.7113 46.0944C21.9034 45.9881 22.085 45.8759 22.2549 45.7587C22.4248 45.8758 22.6064 45.9881 22.7985 46.0945C23.6326 46.5562 24.5464 46.8318 25.2429 46.8319H25.2429C25.7654 46.8319 26.161 46.6843 26.4187 46.3933C26.6139 46.1731 26.707 45.8844 26.6809 45.5804C26.6613 45.3518 26.5782 45.1326 26.4588 44.9288C26.7598 44.8231 27.0135 44.6921 27.217 44.5403C28.6219 45.2464 29.6687 46.4726 30.042 47.9318L25.3799 49.7029C24.0152 50.2215 23.2171 51.6369 23.4821 53.0686ZM47.7534 53.7202C47.4284 54.1094 46.95 54.3326 46.4411 54.3328L45.7492 54.3331L45.317 51.9991C45.2506 51.6412 44.9069 51.4045 44.5487 51.471C44.1909 51.5373 43.9543 51.8812 44.0206 52.2392L44.4086 54.3335L42.1405 54.3344L41.8482 52.7561C41.7819 52.3982 41.438 52.1617 41.08 52.228C40.7221 52.2943 40.4856 52.6382 40.5518 52.9962L40.7997 54.3349L35.5241 54.3369L35.127 52.1935C35.0605 51.8355 34.7169 51.5991 34.3587 51.6654C34.0008 51.7317 33.7643 52.0757 33.8306 52.4337L34.1833 54.3375L26.4803 54.3404C26.4801 54.3404 26.4799 54.3404 26.4797 54.3404C25.656 54.3404 24.9501 53.756 24.8009 52.9504L24.7782 52.8282C24.6292 52.0235 25.079 51.2275 25.8478 50.9353L28.4385 49.9511L28.6315 50.9928C28.6903 51.3102 28.9674 51.532 29.2789 51.532C29.3188 51.532 29.3592 51.5283 29.3998 51.5208C29.7577 51.4545 29.9941 51.1106 29.9278 50.7526L29.6911 49.4753L33.5367 48.0144C33.877 47.8851 34.0481 47.5043 33.9189 47.164C33.7896 46.8236 33.4084 46.6526 33.0686 46.7819L31.2791 47.4617C30.777 45.6843 29.4873 44.1996 27.7771 43.349C27.7234 43.0037 27.4774 42.5048 26.5876 42.1534C26.0058 41.9237 25.2463 41.7972 24.4491 41.7972C23.9005 41.7972 23.3766 41.8577 22.9141 41.968V41.5699C22.9141 41.2059 22.6191 40.9107 22.2549 40.9107C22.101 40.9107 21.9599 40.9638 21.8477 41.0522C21.7437 40.3647 21.6855 39.6663 21.6758 38.9581H43.1464C43.5105 38.9581 43.8055 38.6629 43.8055 38.2989C43.8055 37.9348 43.5105 37.6397 43.1464 37.6397H42.8766C43.2964 36.7752 43.5335 35.806 43.5335 34.7816C43.5335 34.2 43.0885 33.7209 42.5215 33.6665C42.7684 33.4337 43.0765 33.2767 43.42 33.2169C43.5206 33.1994 43.6227 33.1905 43.7236 33.1905C44.5747 33.1905 45.2978 33.7993 45.4431 34.638C45.4599 34.7351 45.4685 34.8353 45.4686 34.9359C45.469 35.2773 45.7301 35.5619 46.0701 35.5918C46.8579 35.6609 47.5024 36.2534 47.6375 37.0325C47.6733 37.2396 47.6688 37.4441 47.6329 37.6397H46.9256C46.5615 37.6397 46.2665 37.9348 46.2665 38.2989C46.2665 38.6629 46.5615 38.9581 46.9256 38.9581H52.049C52.0326 40.1673 51.8769 41.3484 51.5864 42.4944L48.014 44.6033C47.7955 43.8428 47.2877 43.1978 46.588 42.8062C45.8032 42.367 44.8706 42.2983 44.0295 42.6178L36.6721 45.4129C36.3317 45.5422 36.1607 45.9229 36.29 46.2632C36.4192 46.6036 36.8003 46.7745 37.1402 46.6454L38.1095 46.2772L38.4104 47.902C38.4692 48.2194 38.7462 48.4413 39.0578 48.4413C39.0976 48.4413 39.138 48.4376 39.1786 48.4302C39.5365 48.3639 39.773 48.02 39.7068 47.662L39.3622 45.8014L44.4975 43.8505C44.9733 43.6698 45.5005 43.7085 45.9441 43.9568C46.3869 44.2046 46.6936 44.6317 46.7857 45.1285L48.1193 52.328C48.2112 52.8245 48.0779 53.3319 47.7534 53.7202ZM50.1053 48.5605C49.7978 48.617 49.5724 48.8818 49.5654 49.1944C49.5586 49.507 49.7723 49.7814 50.077 49.8513L54.9848 50.977L54.8622 51.7995L49.1727 50.7771L48.2834 45.9753L53.239 43.05L53.6518 43.781L49.4719 46.5751C49.212 46.7488 49.1099 47.0812 49.2275 47.3709C49.345 47.6606 49.65 47.8279 49.9574 47.7714L56.5234 46.5653L56.6696 47.3546L50.1053 48.5605Z" fill="#424141"/>
</svg>
